<svg width="37" height="31" viewBox="0 0 37 31" fill="none" xmlns="http://www.w3.org/2000/svg">
<path d="M20.6667 25.6667C20.6667 25.1 20.7334 24.55 20.8167 24H4.00002V14H30.6667V15.6667C31.8334 15.6667 32.95 15.8833 34 16.25V3.99999C34 2.14999 32.5167 0.66666 30.6667 0.66666H4.00002C2.15002 0.66666 0.666687 2.14999 0.666687 3.99999V24C0.666687 25.8333 2.15002 27.3333 4.00002 27.3333H20.8167C20.7334 26.7833 20.6667 26.2333 20.6667 25.6667ZM4.00002 3.99999H30.6667V7.33333H4.00002V3.99999ZM28.5834 30.6667L24 25.6667L25.9334 23.7333L28.5834 26.3833L34.5667 20.4L36.5 22.75L28.5834 30.6667Z" fill="#43a724"/>
</svg>
